<svg width="1092" height="482" viewBox="0 0 1092 482" fill="none" xmlns="http://www.w3.org/2000/svg">
<path d="M241 477.967C241 480.176 239.209 481.967 237 481.967H4C1.79086 481.967 0 480.176 0 477.967V240.967C-1.00599e-06 209.319 6.23347 177.98 18.3447 148.741C30.4561 119.501 48.2081 92.933 70.5869 70.5541C92.9658 48.1752 119.534 30.4233 148.773 18.3119C176.78 6.71102 206.713 0.503061 237 0.000357246C239.209 -0.0363056 241 1.75802 241 3.96716V477.967Z" fill="#333333"/>
<path d="M582 477.967C582 480.176 583.791 481.967 586 481.967H819C821.209 481.967 823 480.176 823 477.967V240.967C823 209.319 816.767 177.98 804.655 148.741C792.544 119.501 774.792 92.933 752.413 70.5541C730.034 48.1752 703.466 30.4233 674.227 18.3119C646.22 6.71102 616.287 0.503061 586 0.000357246C583.791 -0.0363056 582 1.75802 582 3.96716V477.967Z" fill="#999999"/>
<path d="M269 477.967C269 480.176 270.791 481.967 273 481.967H506C508.209 481.967 510 480.176 510 477.967V240.967C510 209.319 503.767 177.98 491.655 148.741C479.544 119.501 461.792 92.933 439.413 70.5541C417.034 48.1752 390.466 30.4233 361.227 18.3119C333.22 6.71102 303.287 0.503061 273 0.000357246C270.791 -0.0363056 269 1.75802 269 3.96716V477.967Z" fill="#333333"/>
<path d="M1092 477.967C1092 480.176 1090.21 481.967 1088 481.967H855C852.791 481.967 851 480.176 851 477.967V240.967C851 209.319 857.233 177.98 869.345 148.741C881.456 119.501 899.208 92.933 921.587 70.5541C943.966 48.1752 970.534 30.4233 999.773 18.3119C1027.78 6.71102 1057.71 0.503061 1088 0.000357246C1090.21 -0.0363056 1092 1.75802 1092 3.96716V477.967Z" fill="#999999"/>
</svg>
